<mxfile host="app.diagrams.net" agent="Mozilla/5.0 (Windows NT 10.0; Win64; x64) AppleWebKit/537.36 (KHTML, like Gecko) Chrome/130.0.0.0 Safari/537.36" version="24.8.3">
  <diagram name="Trang-1" id="_9UZo5vtLW2tMfMYqqjR">
    <mxGraphModel dx="2876" dy="2232" grid="1" gridSize="10" guides="1" tooltips="1" connect="1" arrows="1" fold="1" page="1" pageScale="1" pageWidth="827" pageHeight="1169" math="0" shadow="0">
      <root>
        <mxCell id="0" />
        <mxCell id="1" parent="0" />
        <mxCell id="PB5Un8uN2EqfOHupIHOX-29" value="" style="edgeStyle=orthogonalEdgeStyle;rounded=0;orthogonalLoop=1;jettySize=auto;html=1;" parent="1" source="PB5Un8uN2EqfOHupIHOX-24" target="PB5Un8uN2EqfOHupIHOX-26" edge="1">
          <mxGeometry relative="1" as="geometry" />
        </mxCell>
        <mxCell id="PB5Un8uN2EqfOHupIHOX-24" value="Start" style="strokeWidth=2;html=1;shape=mxgraph.flowchart.start_1;whiteSpace=wrap;" parent="1" vertex="1">
          <mxGeometry x="-240" y="40" width="66.67" height="40" as="geometry" />
        </mxCell>
        <mxCell id="PB5Un8uN2EqfOHupIHOX-30" value="" style="edgeStyle=orthogonalEdgeStyle;rounded=0;orthogonalLoop=1;jettySize=auto;html=1;" parent="1" source="PB5Un8uN2EqfOHupIHOX-26" target="PB5Un8uN2EqfOHupIHOX-28" edge="1">
          <mxGeometry relative="1" as="geometry" />
        </mxCell>
        <mxCell id="PB5Un8uN2EqfOHupIHOX-26" value="Intro" style="rounded=0;whiteSpace=wrap;html=1;" parent="1" vertex="1">
          <mxGeometry x="-120" y="30" width="120" height="60" as="geometry" />
        </mxCell>
        <mxCell id="PB5Un8uN2EqfOHupIHOX-32" value="" style="edgeStyle=orthogonalEdgeStyle;rounded=0;orthogonalLoop=1;jettySize=auto;html=1;" parent="1" source="PB5Un8uN2EqfOHupIHOX-28" target="PB5Un8uN2EqfOHupIHOX-31" edge="1">
          <mxGeometry relative="1" as="geometry" />
        </mxCell>
        <mxCell id="PB5Un8uN2EqfOHupIHOX-34" value="" style="edgeStyle=orthogonalEdgeStyle;rounded=0;orthogonalLoop=1;jettySize=auto;html=1;" parent="1" source="PB5Un8uN2EqfOHupIHOX-28" target="PB5Un8uN2EqfOHupIHOX-33" edge="1">
          <mxGeometry relative="1" as="geometry" />
        </mxCell>
        <mxCell id="PB5Un8uN2EqfOHupIHOX-28" value="Have an account" style="strokeWidth=2;html=1;shape=mxgraph.flowchart.decision;whiteSpace=wrap;" parent="1" vertex="1">
          <mxGeometry x="50" y="10" width="100" height="100" as="geometry" />
        </mxCell>
        <mxCell id="PB5Un8uN2EqfOHupIHOX-38" value="" style="edgeStyle=orthogonalEdgeStyle;rounded=0;orthogonalLoop=1;jettySize=auto;html=1;" parent="1" source="PB5Un8uN2EqfOHupIHOX-31" target="PB5Un8uN2EqfOHupIHOX-37" edge="1">
          <mxGeometry relative="1" as="geometry" />
        </mxCell>
        <mxCell id="PB5Un8uN2EqfOHupIHOX-31" value="Login" style="whiteSpace=wrap;html=1;strokeWidth=2;" parent="1" vertex="1">
          <mxGeometry x="220" y="30" width="120" height="60" as="geometry" />
        </mxCell>
        <mxCell id="PB5Un8uN2EqfOHupIHOX-45" value="" style="edgeStyle=orthogonalEdgeStyle;rounded=0;orthogonalLoop=1;jettySize=auto;html=1;" parent="1" source="PB5Un8uN2EqfOHupIHOX-33" target="PB5Un8uN2EqfOHupIHOX-44" edge="1">
          <mxGeometry relative="1" as="geometry" />
        </mxCell>
        <mxCell id="PB5Un8uN2EqfOHupIHOX-33" value="Sign In" style="whiteSpace=wrap;html=1;strokeWidth=2;" parent="1" vertex="1">
          <mxGeometry x="40" y="160" width="120" height="60" as="geometry" />
        </mxCell>
        <mxCell id="PB5Un8uN2EqfOHupIHOX-40" value="" style="edgeStyle=orthogonalEdgeStyle;rounded=0;orthogonalLoop=1;jettySize=auto;html=1;" parent="1" source="PB5Un8uN2EqfOHupIHOX-37" target="PB5Un8uN2EqfOHupIHOX-39" edge="1">
          <mxGeometry relative="1" as="geometry" />
        </mxCell>
        <mxCell id="PB5Un8uN2EqfOHupIHOX-43" value="" style="edgeStyle=orthogonalEdgeStyle;rounded=0;orthogonalLoop=1;jettySize=auto;html=1;" parent="1" source="PB5Un8uN2EqfOHupIHOX-37" target="PB5Un8uN2EqfOHupIHOX-42" edge="1">
          <mxGeometry relative="1" as="geometry" />
        </mxCell>
        <mxCell id="PB5Un8uN2EqfOHupIHOX-37" value="validation" style="rhombus;whiteSpace=wrap;html=1;strokeWidth=2;" parent="1" vertex="1">
          <mxGeometry x="440" y="20" width="80" height="80" as="geometry" />
        </mxCell>
        <mxCell id="PB5Un8uN2EqfOHupIHOX-41" style="edgeStyle=orthogonalEdgeStyle;rounded=0;orthogonalLoop=1;jettySize=auto;html=1;exitX=0;exitY=0.5;exitDx=0;exitDy=0;" parent="1" source="PB5Un8uN2EqfOHupIHOX-39" target="PB5Un8uN2EqfOHupIHOX-31" edge="1">
          <mxGeometry relative="1" as="geometry" />
        </mxCell>
        <mxCell id="PB5Un8uN2EqfOHupIHOX-39" value="Error" style="whiteSpace=wrap;html=1;strokeWidth=2;" parent="1" vertex="1">
          <mxGeometry x="420" y="-130" width="120" height="60" as="geometry" />
        </mxCell>
        <mxCell id="_1yP4AtDDw6oIULjw2We-2" style="edgeStyle=orthogonalEdgeStyle;rounded=0;orthogonalLoop=1;jettySize=auto;html=1;exitX=1;exitY=0.5;exitDx=0;exitDy=0;entryX=0;entryY=0.5;entryDx=0;entryDy=0;" edge="1" parent="1" source="PB5Un8uN2EqfOHupIHOX-42" target="_1yP4AtDDw6oIULjw2We-1">
          <mxGeometry relative="1" as="geometry" />
        </mxCell>
        <mxCell id="PB5Un8uN2EqfOHupIHOX-42" value="Main Menu" style="whiteSpace=wrap;html=1;strokeWidth=2;" parent="1" vertex="1">
          <mxGeometry x="580" y="30" width="120" height="60" as="geometry" />
        </mxCell>
        <mxCell id="PB5Un8uN2EqfOHupIHOX-47" value="" style="edgeStyle=orthogonalEdgeStyle;rounded=0;orthogonalLoop=1;jettySize=auto;html=1;" parent="1" source="PB5Un8uN2EqfOHupIHOX-44" target="PB5Un8uN2EqfOHupIHOX-46" edge="1">
          <mxGeometry relative="1" as="geometry" />
        </mxCell>
        <mxCell id="PB5Un8uN2EqfOHupIHOX-49" value="" style="edgeStyle=orthogonalEdgeStyle;rounded=0;orthogonalLoop=1;jettySize=auto;html=1;" parent="1" source="PB5Un8uN2EqfOHupIHOX-44" target="PB5Un8uN2EqfOHupIHOX-48" edge="1">
          <mxGeometry relative="1" as="geometry" />
        </mxCell>
        <mxCell id="PB5Un8uN2EqfOHupIHOX-44" value="validation" style="rhombus;whiteSpace=wrap;html=1;strokeWidth=2;" parent="1" vertex="1">
          <mxGeometry x="260" y="150" width="80" height="80" as="geometry" />
        </mxCell>
        <mxCell id="PB5Un8uN2EqfOHupIHOX-51" style="edgeStyle=orthogonalEdgeStyle;rounded=0;orthogonalLoop=1;jettySize=auto;html=1;exitX=0.5;exitY=0;exitDx=0;exitDy=0;entryX=0.5;entryY=1;entryDx=0;entryDy=0;" parent="1" source="PB5Un8uN2EqfOHupIHOX-46" target="PB5Un8uN2EqfOHupIHOX-31" edge="1">
          <mxGeometry relative="1" as="geometry" />
        </mxCell>
        <mxCell id="PB5Un8uN2EqfOHupIHOX-46" value="New account" style="whiteSpace=wrap;html=1;strokeWidth=2;" parent="1" vertex="1">
          <mxGeometry x="400" y="160" width="120" height="60" as="geometry" />
        </mxCell>
        <mxCell id="PB5Un8uN2EqfOHupIHOX-50" style="edgeStyle=orthogonalEdgeStyle;rounded=0;orthogonalLoop=1;jettySize=auto;html=1;exitX=0;exitY=0.5;exitDx=0;exitDy=0;entryX=0.5;entryY=1;entryDx=0;entryDy=0;" parent="1" source="PB5Un8uN2EqfOHupIHOX-48" target="PB5Un8uN2EqfOHupIHOX-33" edge="1">
          <mxGeometry relative="1" as="geometry" />
        </mxCell>
        <mxCell id="PB5Un8uN2EqfOHupIHOX-48" value="Error" style="whiteSpace=wrap;html=1;strokeWidth=2;" parent="1" vertex="1">
          <mxGeometry x="240" y="320" width="120" height="60" as="geometry" />
        </mxCell>
        <mxCell id="PB5Un8uN2EqfOHupIHOX-55" value="Settings" style="whiteSpace=wrap;html=1;strokeWidth=2;" vertex="1" parent="1">
          <mxGeometry x="580" y="-140" width="120" height="60" as="geometry" />
        </mxCell>
        <mxCell id="PB5Un8uN2EqfOHupIHOX-57" style="edgeStyle=orthogonalEdgeStyle;rounded=0;orthogonalLoop=1;jettySize=auto;html=1;" edge="1" parent="1" source="PB5Un8uN2EqfOHupIHOX-42" target="PB5Un8uN2EqfOHupIHOX-55">
          <mxGeometry relative="1" as="geometry" />
        </mxCell>
        <mxCell id="PB5Un8uN2EqfOHupIHOX-60" value="Leaderboard" style="whiteSpace=wrap;html=1;strokeWidth=2;" vertex="1" parent="1">
          <mxGeometry x="730" y="-140" width="120" height="60" as="geometry" />
        </mxCell>
        <mxCell id="PB5Un8uN2EqfOHupIHOX-62" style="edgeStyle=orthogonalEdgeStyle;rounded=0;orthogonalLoop=1;jettySize=auto;html=1;" edge="1" parent="1" source="PB5Un8uN2EqfOHupIHOX-42" target="PB5Un8uN2EqfOHupIHOX-60">
          <mxGeometry relative="1" as="geometry" />
        </mxCell>
        <mxCell id="PB5Un8uN2EqfOHupIHOX-70" value="Shop" style="whiteSpace=wrap;html=1;strokeWidth=2;" vertex="1" parent="1">
          <mxGeometry x="580" y="230" width="120" height="60" as="geometry" />
        </mxCell>
        <mxCell id="PB5Un8uN2EqfOHupIHOX-72" style="edgeStyle=orthogonalEdgeStyle;rounded=0;orthogonalLoop=1;jettySize=auto;html=1;" edge="1" parent="1" source="PB5Un8uN2EqfOHupIHOX-42" target="PB5Un8uN2EqfOHupIHOX-70">
          <mxGeometry relative="1" as="geometry" />
        </mxCell>
        <mxCell id="PB5Un8uN2EqfOHupIHOX-85" value="CheckGold" style="whiteSpace=wrap;html=1;strokeWidth=2;fillColor=#FFD700;" vertex="1" parent="1">
          <mxGeometry x="750" y="180" width="120" height="60" as="geometry" />
        </mxCell>
        <mxCell id="PB5Un8uN2EqfOHupIHOX-77" style="edgeStyle=orthogonalEdgeStyle;rounded=0;orthogonalLoop=1;jettySize=auto;html=1;" edge="1" parent="1" source="PB5Un8uN2EqfOHupIHOX-70" target="PB5Un8uN2EqfOHupIHOX-85">
          <mxGeometry relative="1" as="geometry" />
        </mxCell>
        <mxCell id="PB5Un8uN2EqfOHupIHOX-75" value="Upgrade Character" style="whiteSpace=wrap;html=1;strokeWidth=2;" vertex="1" parent="1">
          <mxGeometry x="960" y="180" width="120" height="60" as="geometry" />
        </mxCell>
        <mxCell id="PB5Un8uN2EqfOHupIHOX-78" style="edgeStyle=orthogonalEdgeStyle;rounded=0;orthogonalLoop=1;jettySize=auto;html=1;" edge="1" parent="1" source="PB5Un8uN2EqfOHupIHOX-85" target="PB5Un8uN2EqfOHupIHOX-75">
          <mxGeometry relative="1" as="geometry" />
        </mxCell>
        <mxCell id="PB5Un8uN2EqfOHupIHOX-90" value="CheckDiamonds" style="whiteSpace=wrap;html=1;strokeWidth=2;fillColor=#00FFFF;" vertex="1" parent="1">
          <mxGeometry x="750" y="290" width="120" height="60" as="geometry" />
        </mxCell>
        <mxCell id="PB5Un8uN2EqfOHupIHOX-82" style="edgeStyle=orthogonalEdgeStyle;rounded=0;orthogonalLoop=1;jettySize=auto;html=1;" edge="1" parent="1" source="PB5Un8uN2EqfOHupIHOX-70" target="PB5Un8uN2EqfOHupIHOX-90">
          <mxGeometry relative="1" as="geometry" />
        </mxCell>
        <mxCell id="PB5Un8uN2EqfOHupIHOX-80" value="Buy Skin" style="whiteSpace=wrap;html=1;strokeWidth=2;" vertex="1" parent="1">
          <mxGeometry x="960" y="290" width="120" height="60" as="geometry" />
        </mxCell>
        <mxCell id="PB5Un8uN2EqfOHupIHOX-83" style="edgeStyle=orthogonalEdgeStyle;rounded=0;orthogonalLoop=1;jettySize=auto;html=1;" edge="1" parent="1" source="PB5Un8uN2EqfOHupIHOX-90" target="PB5Un8uN2EqfOHupIHOX-80">
          <mxGeometry relative="1" as="geometry" />
        </mxCell>
        <mxCell id="_1yP4AtDDw6oIULjw2We-4" value="" style="edgeStyle=orthogonalEdgeStyle;rounded=0;orthogonalLoop=1;jettySize=auto;html=1;" edge="1" parent="1" source="_1yP4AtDDw6oIULjw2We-1" target="_1yP4AtDDw6oIULjw2We-3">
          <mxGeometry relative="1" as="geometry" />
        </mxCell>
        <mxCell id="_1yP4AtDDw6oIULjw2We-1" value="Game" style="whiteSpace=wrap;html=1;strokeWidth=2;" vertex="1" parent="1">
          <mxGeometry x="840" y="30" width="120" height="60" as="geometry" />
        </mxCell>
        <mxCell id="_1yP4AtDDw6oIULjw2We-6" value="" style="edgeStyle=orthogonalEdgeStyle;rounded=0;orthogonalLoop=1;jettySize=auto;html=1;" edge="1" parent="1" source="_1yP4AtDDw6oIULjw2We-3" target="_1yP4AtDDw6oIULjw2We-5">
          <mxGeometry relative="1" as="geometry" />
        </mxCell>
        <mxCell id="_1yP4AtDDw6oIULjw2We-3" value="Choose Character" style="whiteSpace=wrap;html=1;strokeWidth=2;" vertex="1" parent="1">
          <mxGeometry x="1040" y="30" width="120" height="60" as="geometry" />
        </mxCell>
        <mxCell id="_1yP4AtDDw6oIULjw2We-8" value="" style="edgeStyle=orthogonalEdgeStyle;rounded=0;orthogonalLoop=1;jettySize=auto;html=1;" edge="1" parent="1" source="_1yP4AtDDw6oIULjw2We-5" target="_1yP4AtDDw6oIULjw2We-7">
          <mxGeometry relative="1" as="geometry" />
        </mxCell>
        <mxCell id="_1yP4AtDDw6oIULjw2We-5" value="Choose Skin" style="whiteSpace=wrap;html=1;strokeWidth=2;" vertex="1" parent="1">
          <mxGeometry x="1040" y="-100" width="120" height="60" as="geometry" />
        </mxCell>
        <mxCell id="_1yP4AtDDw6oIULjw2We-10" value="" style="edgeStyle=orthogonalEdgeStyle;rounded=0;orthogonalLoop=1;jettySize=auto;html=1;" edge="1" parent="1" source="_1yP4AtDDw6oIULjw2We-7" target="_1yP4AtDDw6oIULjw2We-9">
          <mxGeometry relative="1" as="geometry" />
        </mxCell>
        <mxCell id="_1yP4AtDDw6oIULjw2We-7" value="Choose Map" style="whiteSpace=wrap;html=1;strokeWidth=2;" vertex="1" parent="1">
          <mxGeometry x="1210" y="-100" width="120" height="60" as="geometry" />
        </mxCell>
        <mxCell id="_1yP4AtDDw6oIULjw2We-12" value="" style="edgeStyle=orthogonalEdgeStyle;rounded=0;orthogonalLoop=1;jettySize=auto;html=1;" edge="1" parent="1" source="_1yP4AtDDw6oIULjw2We-9" target="_1yP4AtDDw6oIULjw2We-11">
          <mxGeometry relative="1" as="geometry" />
        </mxCell>
        <mxCell id="_1yP4AtDDw6oIULjw2We-9" value="Start Game" style="whiteSpace=wrap;html=1;strokeWidth=2;" vertex="1" parent="1">
          <mxGeometry x="1210" y="30" width="120" height="60" as="geometry" />
        </mxCell>
        <mxCell id="_1yP4AtDDw6oIULjw2We-14" value="" style="edgeStyle=orthogonalEdgeStyle;rounded=0;orthogonalLoop=1;jettySize=auto;html=1;" edge="1" parent="1" source="_1yP4AtDDw6oIULjw2We-11" target="_1yP4AtDDw6oIULjw2We-13">
          <mxGeometry relative="1" as="geometry" />
        </mxCell>
        <mxCell id="_1yP4AtDDw6oIULjw2We-11" value="Spawn Enemy" style="whiteSpace=wrap;html=1;strokeWidth=2;" vertex="1" parent="1">
          <mxGeometry x="1410" y="30" width="120" height="60" as="geometry" />
        </mxCell>
        <mxCell id="_1yP4AtDDw6oIULjw2We-16" value="" style="edgeStyle=orthogonalEdgeStyle;rounded=0;orthogonalLoop=1;jettySize=auto;html=1;" edge="1" parent="1" source="_1yP4AtDDw6oIULjw2We-13" target="_1yP4AtDDw6oIULjw2We-15">
          <mxGeometry relative="1" as="geometry" />
        </mxCell>
        <mxCell id="_1yP4AtDDw6oIULjw2We-13" value="Kill Enemy" style="whiteSpace=wrap;html=1;strokeWidth=2;" vertex="1" parent="1">
          <mxGeometry x="1410" y="-90" width="120" height="60" as="geometry" />
        </mxCell>
        <mxCell id="_1yP4AtDDw6oIULjw2We-18" value="" style="edgeStyle=orthogonalEdgeStyle;rounded=0;orthogonalLoop=1;jettySize=auto;html=1;" edge="1" parent="1" source="_1yP4AtDDw6oIULjw2We-15" target="_1yP4AtDDw6oIULjw2We-17">
          <mxGeometry relative="1" as="geometry" />
        </mxCell>
        <mxCell id="_1yP4AtDDw6oIULjw2We-15" value="Spawn Exp/Burger" style="whiteSpace=wrap;html=1;strokeWidth=2;" vertex="1" parent="1">
          <mxGeometry x="1610" y="-90" width="120" height="60" as="geometry" />
        </mxCell>
        <mxCell id="_1yP4AtDDw6oIULjw2We-20" value="" style="edgeStyle=orthogonalEdgeStyle;rounded=0;orthogonalLoop=1;jettySize=auto;html=1;" edge="1" parent="1" source="_1yP4AtDDw6oIULjw2We-17" target="_1yP4AtDDw6oIULjw2We-19">
          <mxGeometry relative="1" as="geometry" />
        </mxCell>
        <mxCell id="_1yP4AtDDw6oIULjw2We-17" value="take exp" style="whiteSpace=wrap;html=1;strokeWidth=2;" vertex="1" parent="1">
          <mxGeometry x="1610" y="30" width="120" height="60" as="geometry" />
        </mxCell>
        <mxCell id="_1yP4AtDDw6oIULjw2We-21" style="edgeStyle=orthogonalEdgeStyle;rounded=0;orthogonalLoop=1;jettySize=auto;html=1;exitX=0.5;exitY=1;exitDx=0;exitDy=0;entryX=0.5;entryY=1;entryDx=0;entryDy=0;" edge="1" parent="1" source="_1yP4AtDDw6oIULjw2We-19" target="_1yP4AtDDw6oIULjw2We-17">
          <mxGeometry relative="1" as="geometry" />
        </mxCell>
        <mxCell id="_1yP4AtDDw6oIULjw2We-29" value="" style="edgeStyle=orthogonalEdgeStyle;rounded=0;orthogonalLoop=1;jettySize=auto;html=1;" edge="1" parent="1" source="_1yP4AtDDw6oIULjw2We-19" target="_1yP4AtDDw6oIULjw2We-28">
          <mxGeometry relative="1" as="geometry" />
        </mxCell>
        <mxCell id="_1yP4AtDDw6oIULjw2We-19" value="Exp Enough" style="rhombus;whiteSpace=wrap;html=1;strokeWidth=2;" vertex="1" parent="1">
          <mxGeometry x="1830" y="20" width="80" height="80" as="geometry" />
        </mxCell>
        <mxCell id="_1yP4AtDDw6oIULjw2We-31" value="" style="edgeStyle=orthogonalEdgeStyle;rounded=0;orthogonalLoop=1;jettySize=auto;html=1;" edge="1" parent="1" source="_1yP4AtDDw6oIULjw2We-28" target="_1yP4AtDDw6oIULjw2We-30">
          <mxGeometry relative="1" as="geometry" />
        </mxCell>
        <mxCell id="_1yP4AtDDw6oIULjw2We-28" value="Level up" style="whiteSpace=wrap;html=1;strokeWidth=2;" vertex="1" parent="1">
          <mxGeometry x="1810" y="-90" width="120" height="60" as="geometry" />
        </mxCell>
        <mxCell id="_1yP4AtDDw6oIULjw2We-33" value="" style="edgeStyle=orthogonalEdgeStyle;rounded=0;orthogonalLoop=1;jettySize=auto;html=1;" edge="1" parent="1" source="_1yP4AtDDw6oIULjw2We-30" target="_1yP4AtDDw6oIULjw2We-32">
          <mxGeometry relative="1" as="geometry" />
        </mxCell>
        <mxCell id="_1yP4AtDDw6oIULjw2We-35" value="" style="edgeStyle=orthogonalEdgeStyle;rounded=0;orthogonalLoop=1;jettySize=auto;html=1;" edge="1" parent="1" source="_1yP4AtDDw6oIULjw2We-30" target="_1yP4AtDDw6oIULjw2We-34">
          <mxGeometry relative="1" as="geometry" />
        </mxCell>
        <mxCell id="_1yP4AtDDw6oIULjw2We-30" value="have a weapon/passive" style="rhombus;whiteSpace=wrap;html=1;strokeWidth=2;" vertex="1" parent="1">
          <mxGeometry x="1988" y="-100" width="80" height="80" as="geometry" />
        </mxCell>
        <mxCell id="_1yP4AtDDw6oIULjw2We-37" value="" style="edgeStyle=orthogonalEdgeStyle;rounded=0;orthogonalLoop=1;jettySize=auto;html=1;" edge="1" parent="1" source="_1yP4AtDDw6oIULjw2We-32" target="_1yP4AtDDw6oIULjw2We-36">
          <mxGeometry relative="1" as="geometry" />
        </mxCell>
        <mxCell id="_1yP4AtDDw6oIULjw2We-32" value="Level Up weapon/passive Item" style="whiteSpace=wrap;html=1;strokeWidth=2;" vertex="1" parent="1">
          <mxGeometry x="1968" y="30" width="120" height="60" as="geometry" />
        </mxCell>
        <mxCell id="_1yP4AtDDw6oIULjw2We-38" value="" style="edgeStyle=orthogonalEdgeStyle;rounded=0;orthogonalLoop=1;jettySize=auto;html=1;" edge="1" parent="1" source="_1yP4AtDDw6oIULjw2We-34" target="_1yP4AtDDw6oIULjw2We-36">
          <mxGeometry relative="1" as="geometry" />
        </mxCell>
        <mxCell id="_1yP4AtDDw6oIULjw2We-34" value="Add new Weapon/passive" style="whiteSpace=wrap;html=1;strokeWidth=2;" vertex="1" parent="1">
          <mxGeometry x="2168" y="-90" width="120" height="60" as="geometry" />
        </mxCell>
        <mxCell id="_1yP4AtDDw6oIULjw2We-40" value="" style="edgeStyle=orthogonalEdgeStyle;rounded=0;orthogonalLoop=1;jettySize=auto;html=1;" edge="1" parent="1" source="_1yP4AtDDw6oIULjw2We-36" target="_1yP4AtDDw6oIULjw2We-39">
          <mxGeometry relative="1" as="geometry" />
        </mxCell>
        <mxCell id="_1yP4AtDDw6oIULjw2We-36" value="End Level Up. Continue Game" style="whiteSpace=wrap;html=1;strokeWidth=2;" vertex="1" parent="1">
          <mxGeometry x="2168" y="30" width="120" height="60" as="geometry" />
        </mxCell>
        <mxCell id="_1yP4AtDDw6oIULjw2We-39" value="Spawn&amp;nbsp;" style="whiteSpace=wrap;html=1;strokeWidth=2;" vertex="1" parent="1">
          <mxGeometry x="2368" y="30" width="120" height="60" as="geometry" />
        </mxCell>
      </root>
    </mxGraphModel>
  </diagram>
</mxfile>
